# xmcd
#
# Track frame offsets:
#	150
#	16960
#	34902
#	53485
#	71785
#	86280
#	105572
#	126360
#	142282
#	161002
#	175980
#	189934
#	205637
#	223912
#	240772
#
# Disc length: 3483 seconds
#
# Revision: 0
# Processed by: cddbd v1.5.1PL0 Copyright (c) Steve Scherf et al.
# Submitted via: dBpowerAMP V4.0
#
DISCID=ce0d990f
DTITLE=Kisa - The Time Is Right
DYEAR=2004
DGENRE=Soul/R&B
TTITLE0=Another Try
TTITLE1=Can´t Buy My LOve
TTITLE2=Dance With Me (feat. Mr. Chin)
TTITLE3=Games
TTITLE4=I Refuse
TTITLE5=Take Me Away
TTITLE6=I Miss You
TTITLE7=Ready For Your Love (feat. Cruz)
TTITLE8=Tell Me (feat. D-Sign)
TTITLE9=The Time Is Right
TTITLE10=Look At Me
TTITLE11=Play This Game
TTITLE12=You´re No Good
TTITLE13=Let Me Love You
TTITLE14=Do You Know
EXTD=Kisa fra stjerne for en aften (DRTV) - Soul/R&B
EXTT0=
EXTT1=
EXTT2=
EXTT3=
EXTT4=
EXTT5=
EXTT6=
EXTT7=
EXTT8=
EXTT9=
EXTT10=
EXTT11=
EXTT12=
EXTT13=
EXTT14=
PLAYORDER=
